<?xml version="1.0" encoding="UTF-8"?>
<!DOCTYPE svg PUBLIC "-//W3C//DTD SVG 1.1//EN" "http://www.w3.org/Graphics/SVG/1.1/DTD/svg11.dtd">
<!-- Creator: CorelDRAW -->
<svg xmlns="http://www.w3.org/2000/svg" xml:space="preserve" width="0.890228in" height="0.871055in" style="shape-rendering:geometricPrecision; text-rendering:geometricPrecision; image-rendering:optimizeQuality; fill-rule:evenodd; clip-rule:evenodd"
viewBox="0 0 0.130353 0.127546"
 xmlns:xlink="http://www.w3.org/1999/xlink">
 <defs>
  <style type="text/css">
   <![CDATA[
    .str0 {stroke:#FEFEFE;stroke-width:0.00488108}
    .str1 {stroke:#FEFEFE;stroke-width:0.00780961}
    .fil1 {fill:none}
    .fil0 {fill:#201E1E}
    .fil2 {fill:#FEFEFE}
   ]]>
  </style>
    <clipPath id="id0">
     <path d="M-0 0l0.130353 0 0 0.127546 -0.130353 0 0 -0.127546z"/>
    </clipPath>
 </defs>
 <g id="Layer_x0020_1">
  <metadata id="CorelCorpID_0Corel-Layer"/>
  <g id="_454895328">
   <g style="clip-path:url(#id0)">
    <image id="_454866288" transform="matrix(1 0 0 1 0.445114 -0.312418)" x="-0.445114" y="0.312418" width="0.130353" height="0.127546" xlink:href="logo-light_Images\logo-light_ImgID1.png"/>
   </g>
  </g>
  <rect class="fil0 str0" x="0.0109417" y="0.00831748" width="0.10847" height="0.10847"/>
  <g>
   <polygon class="fil1 str1" points="0.0247461,0.0242763 0.0368211,0.0242763 0.0590549,0.0242763 0.0711299,0.0242763 0.0711299,0.0389039 0.0711299,0.0834729 0.0935325,0.0834729 0.0935325,0.0242763 0.105608,0.0242763 0.105608,0.0834729 0.105608,0.0955854 0.105608,0.0981012 0.0592238,0.0981012 0.0592238,0.0955854 0.0590549,0.0955854 0.0590549,0.0389039 0.0368211,0.0389039 0.0368211,0.0955854 0.0247461,0.0955854 0.0247461,0.0389039 "/>
   <polygon id="1" class="fil2" points="0.0247461,0.0242763 0.0368211,0.0242763 0.0590549,0.0242763 0.0711299,0.0242763 0.0711299,0.0389039 0.0711299,0.0834729 0.0935325,0.0834729 0.0935325,0.0242763 0.105608,0.0242763 0.105608,0.0834729 0.105608,0.0955854 0.105608,0.0981012 0.0592238,0.0981012 0.0592238,0.0955854 0.0590549,0.0955854 0.0590549,0.0389039 0.0368211,0.0389039 0.0368211,0.0955854 0.0247461,0.0955854 0.0247461,0.0389039 "/>
  </g>
 </g>
</svg>
