<?xml version="1.0" encoding="UTF-8"?>
<!DOCTYPE svg PUBLIC "-//W3C//DTD SVG 1.1//EN" "http://www.w3.org/Graphics/SVG/1.1/DTD/svg11.dtd">
<!-- Creator: CorelDRAW -->
<svg xmlns="http://www.w3.org/2000/svg" xml:space="preserve" width="0.93474in" height="0.890323in" style="shape-rendering:geometricPrecision; text-rendering:geometricPrecision; image-rendering:optimizeQuality; fill-rule:evenodd; clip-rule:evenodd"
viewBox="0 0 0.385495 0.367177"
 xmlns:xlink="http://www.w3.org/1999/xlink">
 <defs>
  <style type="text/css">
   <![CDATA[
    .str0 {stroke:#FEFEFE;stroke-width:0.0137475}
    .str1 {stroke:#FEFEFE;stroke-width:0.0219957}
    .fil1 {fill:none}
    .fil0 {fill:#373435}
    .fil2 {fill:#FEFEFE}
   ]]>
  </style>
    <clipPath id="id0">
     <path d="M-0 0l0.385495 3.89678e-005 0 0.367138 -0.385495 -3.89678e-005 0 -0.367138z"/>
    </clipPath>
 </defs>
 <g id="Layer_x0020_1">
  <metadata id="CorelCorpID_0Corel-Layer"/>
  <g id="_436827296">
   <g style="clip-path:url(#id0)">
    <image id="_432971304" transform="matrix(1 0 0 1 0.46737 -0.88675)" x="-0.46737" y="0.88675" width="0.385495" height="0.367177" xlink:href="logo-light_Images\logo-light_ImgID1.png"/>
   </g>
  </g>
  <g id="_432969288">
   <rect id="_250099704" class="fil0 str0" x="0.0320137" y="0.0308203" width="0.305504" height="0.305504"/>
   <g>
    <g>
     <polygon id="_250099488" class="fil1 str1" points="0.0708938,0.075768 0.104903,0.075768 0.104903,0.27661 0.0708938,0.27661 "/>
     <polygon id="_2500994881" class="fil2" points="0.0708938,0.075768 0.104903,0.075768 0.104903,0.27661 0.0708938,0.27661 "/>
    </g>
    <g>
     <polygon id="_250099560" class="fil1 str1" points="0.167524,0.075768 0.201533,0.075768 0.201533,0.27661 0.167524,0.27661 "/>
     <polygon id="_2500995601" class="fil2" points="0.167524,0.075768 0.201533,0.075768 0.201533,0.27661 0.167524,0.27661 "/>
    </g>
    <g>
     <polygon class="fil1 str1" points="0.26463,0.075768 0.298639,0.075768 0.298639,0.27661 0.26463,0.27661 "/>
     <polygon id="1" class="fil2" points="0.26463,0.075768 0.298639,0.075768 0.298639,0.27661 0.26463,0.27661 "/>
    </g>
    <g>
     <polygon class="fil1 str1" points="0.0708938,0.116967 0.0708938,0.075768 0.201533,0.075768 0.201533,0.116967 "/>
     <polygon id="1" class="fil2" points="0.0708938,0.116967 0.0708938,0.075768 0.201533,0.075768 0.201533,0.116967 "/>
    </g>
    <g>
     <polygon class="fil1 str1" points="0.168,0.283695 0.168,0.242495 0.298639,0.242495 0.298639,0.283695 "/>
     <polygon id="1" class="fil2" points="0.168,0.283695 0.168,0.242495 0.298639,0.242495 0.298639,0.283695 "/>
    </g>
   </g>
  </g>
 </g>
</svg>
