<?xml version="1.0" encoding="UTF-8"?>
<!DOCTYPE svg PUBLIC "-//W3C//DTD SVG 1.1//EN" "http://www.w3.org/Graphics/SVG/1.1/DTD/svg11.dtd">
<!-- Creator: CorelDRAW -->
<svg xmlns="http://www.w3.org/2000/svg" xml:space="preserve" width="0.890228in" height="0.871055in" style="shape-rendering:geometricPrecision; text-rendering:geometricPrecision; image-rendering:optimizeQuality; fill-rule:evenodd; clip-rule:evenodd"
viewBox="0 0 0.277392 0.271418"
 xmlns:xlink="http://www.w3.org/1999/xlink">
 <defs>
  <style type="text/css">
   <![CDATA[
    .str0 {stroke:#201E1E;stroke-width:0.010387}
    .str1 {stroke:#201E1E;stroke-width:0.0166189}
    .fil1 {fill:none}
    .fil2 {fill:#201E1E}
    .fil0 {fill:#FEFEFE}
   ]]>
  </style>
    <clipPath id="id0">
     <path d="M-0 0l0.277392 0 0 0.271418 -0.277392 0 0 -0.271418z"/>
    </clipPath>
 </defs>
 <g id="Layer_x0020_1">
  <metadata id="CorelCorpID_0Corel-Layer"/>
  <g id="_454865712">
   <g style="clip-path:url(#id0)">
    <image id="_454892592" transform="matrix(1 0 0 1 0.445114 -0.664828)" x="-0.445114" y="0.664828" width="0.277392" height="0.271418" xlink:href="logo_Images\logo_ImgID1.png"/>
   </g>
  </g>
  <rect class="fil0 str0" x="0.0232839" y="0.0176996" width="0.230824" height="0.230824"/>
  <g>
   <polygon class="fil1 str1" points="0.0526598,0.05166 0.0783554,0.05166 0.125669,0.05166 0.151365,0.05166 0.151365,0.0827877 0.151365,0.177631 0.199038,0.177631 0.199038,0.05166 0.224733,0.05166 0.224733,0.177631 0.224733,0.203406 0.224733,0.20876 0.126028,0.20876 0.126028,0.203406 0.125669,0.203406 0.125669,0.0827877 0.0783554,0.0827877 0.0783554,0.203406 0.0526598,0.203406 0.0526598,0.0827877 "/>
   <polygon id="1" class="fil2" points="0.0526598,0.05166 0.0783554,0.05166 0.125669,0.05166 0.151365,0.05166 0.151365,0.0827877 0.151365,0.177631 0.199038,0.177631 0.199038,0.05166 0.224733,0.05166 0.224733,0.177631 0.224733,0.203406 0.224733,0.20876 0.126028,0.20876 0.126028,0.203406 0.125669,0.203406 0.125669,0.0827877 0.0783554,0.0827877 0.0783554,0.203406 0.0526598,0.203406 0.0526598,0.0827877 "/>
  </g>
 </g>
</svg>
