<?xml version="1.0" encoding="UTF-8"?>
<!DOCTYPE svg PUBLIC "-//W3C//DTD SVG 1.1//EN" "http://www.w3.org/Graphics/SVG/1.1/DTD/svg11.dtd">
<!-- Creator: CorelDRAW -->
<svg xmlns="http://www.w3.org/2000/svg" xml:space="preserve" width="0.774118in" height="0.774118in" style="shape-rendering:geometricPrecision; text-rendering:geometricPrecision; image-rendering:optimizeQuality; fill-rule:evenodd; clip-rule:evenodd"
viewBox="0 0 0.215891 0.215891"
 xmlns:xlink="http://www.w3.org/1999/xlink">
 <defs>
  <style type="text/css">
   <![CDATA[
    .str1 {stroke:#373435;stroke-width:0.00929658}
    .str0 {stroke:#373435;stroke-width:0.0148743}
    .fil0 {fill:none}
    .fil1 {fill:#373435}
   ]]>
  </style>
 </defs>
 <g id="Layer_x0020_1">
  <metadata id="CorelCorpID_0Corel-Layer"/>
  <g id="_280441496">
   <g>
    <g>
     <polygon id="_280443368" class="fil0 str0" points="0.030941,0.0350442 0.0539392,0.0350442 0.0539392,0.170861 0.030941,0.170861 "/>
     <polygon id="_2804433681" class="fil1" points="0.030941,0.0350442 0.0539392,0.0350442 0.0539392,0.170861 0.030941,0.170861 "/>
    </g>
    <g>
     <polygon id="_280444544" class="fil0 str0" points="0.096286,0.0350442 0.119284,0.0350442 0.119284,0.170861 0.096286,0.170861 "/>
     <polygon id="_2804445441" class="fil1" points="0.096286,0.0350442 0.119284,0.0350442 0.119284,0.170861 0.096286,0.170861 "/>
    </g>
    <g>
     <polygon class="fil0 str0" points="0.161953,0.0350442 0.184951,0.0350442 0.184951,0.170861 0.161953,0.170861 "/>
     <polygon id="1" class="fil1" points="0.161953,0.0350442 0.184951,0.0350442 0.184951,0.170861 0.161953,0.170861 "/>
    </g>
    <g>
     <polygon class="fil0 str0" points="0.030941,0.0629042 0.030941,0.0350442 0.119284,0.0350442 0.119284,0.0629042 "/>
     <polygon id="1" class="fil1" points="0.030941,0.0629042 0.030941,0.0350442 0.119284,0.0350442 0.119284,0.0629042 "/>
    </g>
    <g>
     <polygon class="fil0 str0" points="0.0966078,0.175652 0.0966078,0.147791 0.184951,0.147791 0.184951,0.175652 "/>
     <polygon id="1" class="fil1" points="0.0966078,0.175652 0.0966078,0.147791 0.184951,0.147791 0.184951,0.175652 "/>
    </g>
   </g>
   <rect class="fil0 str1" x="0.00464887" y="0.00464883" width="0.206593" height="0.206593"/>
  </g>
 </g>
</svg>
